<?xml version="1.0" encoding="UTF-8" standalone="no"?>
<!-- Created with Inkscape (http://www.inkscape.org/) -->
<svg
   xmlns:dc="http://purl.org/dc/elements/1.1/"
   xmlns:cc="http://web.resource.org/cc/"
   xmlns:rdf="http://www.w3.org/1999/02/22-rdf-syntax-ns#"
   xmlns:svg="http://www.w3.org/2000/svg"
   xmlns="http://www.w3.org/2000/svg"
   xmlns:sodipodi="http://inkscape.sourceforge.net/DTD/sodipodi-0.dtd"
   xmlns:inkscape="http://www.inkscape.org/namespaces/inkscape"
   sodipodi:docname="Asterism.svg"
   sodipodi:docbase="/home/jake"
   inkscape:version="0.41"
   sodipodi:version="0.32"
   id="svg1291"
   height="222.00000cm"
   width="222.00000cm">
  <defs
     id="defs3" />
  <sodipodi:namedview
     inkscape:window-y="25"
     inkscape:window-x="0"
     inkscape:window-height="696"
     inkscape:window-width="1024"
     inkscape:current-layer="layer1"
     inkscape:document-units="px"
     inkscape:cy="3818.5804"
     inkscape:cx="389.76379"
     inkscape:zoom="0.043936867"
     inkscape:pageshadow="2"
     inkscape:pageopacity="0.0"
     borderopacity="1.0"
     bordercolor="#666666"
     pagecolor="#ffffff"
     id="base" />
  <metadata
     id="metadata4">
    <rdf:RDF
       id="RDF5">
      <cc:Work
         id="Work6"
         rdf:about="">
        <dc:format
           id="format7">image/svg+xml</dc:format>
        <dc:type
           rdf:resource="http://purl.org/dc/dcmitype/StillImage"
           id="type9" />
      </cc:Work>
    </rdf:RDF>
  </metadata>
  <g
     id="layer1"
     inkscape:groupmode="layer"
     inkscape:label="Layer 1">
    <path
       id="text1301"
       d="M 2251.3863,2970.4012 C 2251.3835,2767.8161 2359.2132,2633.8459 2574.8756,2568.4903 L 3339.4866,2372.4362 C 3535.5366,2307.0894 3711.9851,2218.8652 3868.8327,2107.7632 L 3761.0029,2039.1443 C 3584.5501,1928.0519 3274.1314,1823.4898 2829.7459,1725.4577 C 2516.0563,1653.5764 2333.0726,1552.2819 2280.7945,1421.5738 C 2261.1862,1375.8334 2251.3835,1323.5523 2251.3863,1264.7306 C 2251.3835,1134.0336 2306.9321,1036.0066 2418.0323,970.64941 C 2463.7752,944.51477 2516.0563,931.44451 2574.8756,931.43859 C 2718.6453,931.44451 2865.6858,1016.4012 3015.9973,1186.3089 C 3264.3287,1473.8603 3496.3258,1686.2521 3711.9894,1823.4848 C 3783.8715,1869.2357 3859.0255,1914.9816 3937.4516,1960.7226 L 3937.4516,1833.2875 C 3937.4471,1539.2116 3878.6309,1218.9902 3761.0029,872.62236 C 3715.2527,728.85548 3692.3797,598.15288 3692.3840,480.51416 C 3692.3797,225.65045 3813.2796,98.215416 4055.0841,98.208662 C 4231.5280,98.215416 4339.3576,199.50993 4378.5733,402.09252 L 4388.3760,480.51416 C 4388.3711,539.33670 4336.0900,738.65817 4231.5328,1078.4792 C 4159.6415,1326.8199 4123.6983,1542.4792 4123.7030,1725.4577 L 4123.7030,1980.3280 L 4192.3219,1941.1172 C 4394.9062,1823.4898 4643.2412,1601.2954 4937.3275,1274.5333 C 5152.9813,1032.7390 5322.8947,911.83912 5447.0682,911.83318 C 5610.4404,911.83912 5721.5376,983.72556 5780.3602,1127.4927 L 5799.9656,1264.7306 C 5799.9592,1467.3252 5718.2701,1594.7602 5554.8979,1647.0361 L 4829.4978,1823.4848 L 4427.5869,1990.1307 C 4349.1603,2029.3464 4274.0063,2071.8247 4202.1246,2117.5659 L 4280.5463,2166.5794 C 4509.2710,2310.3570 4849.0978,2427.9893 5300.0276,2519.4768 C 5567.9621,2571.7622 5728.0728,2653.4513 5780.3602,2764.5444 C 5799.9592,2816.8296 5809.7619,2875.6457 5809.7683,2940.9931 C 5809.7619,3137.0510 5718.2701,3251.4157 5535.2925,3284.0878 C 5509.1459,3290.6265 5483.0054,3293.8941 5456.8709,3293.8905 C 5313.0920,3293.8941 5136.6435,3172.9942 4927.5248,2931.1904 C 4679.1844,2643.6486 4486.3980,2454.1298 4349.1652,2362.6335 C 4296.8793,2329.9624 4244.5982,2303.8219 4192.3219,2284.2119 L 4123.7030,2254.8038 L 4123.7030,2323.4227 C 4123.6983,2735.1404 4192.3172,3110.9104 4329.5598,3450.7338 L 4398.1788,3676.1960 L 4398.1788,3715.4068 C 4398.1738,3891.8585 4323.0198,4016.0260 4172.7165,4087.9096 C 4126.9659,4114.0529 4074.6848,4127.1232 4015.8733,4127.1204 C 3859.0255,4127.1232 3754.4635,4051.9692 3702.1867,3901.6582 C 3682.5770,3849.3801 3672.7743,3797.0991 3672.7786,3744.8150 C 3672.7743,3686.0019 3728.3229,3486.6804 3839.4246,3146.8499 C 3937.4471,2826.6323 3970.1228,2552.1568 3937.4516,2323.4227 L 3927.6489,2254.8038 C 3600.8879,2470.4677 3388.4962,2633.8459 3290.4731,2744.9390 C 3270.8638,2764.5485 3234.9206,2803.7593 3182.6433,2862.5715 C 2973.5154,3097.8402 2833.0101,3228.5428 2761.1270,3254.6797 L 2584.6783,3284.0878 C 2401.6915,3284.0914 2293.8619,3195.8671 2261.1890,3019.4148 C 2254.6511,3006.3483 2251.3835,2990.0105 2251.3863,2970.4012 M 104.59393,6528.7832 C 104.59325,6326.1945 212.42290,6192.2243 428.08319,6126.8723 L 1192.6942,5930.8182 C 1388.7463,5865.4678 1565.1948,5777.2435 1722.0403,5666.1451 L 1614.2105,5597.5262 C 1437.7598,5486.4303 1127.3411,5381.8682 682.95353,5283.8396 C 369.26602,5211.9548 186.28238,5110.6603 134.00204,4979.9558 C 114.39594,4934.2118 104.59325,4881.9307 104.59393,4823.1125 C 104.59325,4692.4119 160.14186,4594.3850 271.23991,4529.0314 C 316.98498,4502.8932 369.26602,4489.8229 428.08319,4489.8205 C 571.85506,4489.8229 718.89549,4574.7796 869.20492,4744.6909 C 1117.5384,5032.2387 1349.5355,5244.6304 1565.1970,5381.8667 C 1637.0813,5427.6141 1712.2353,5473.3600 1790.6592,5519.1046 L 1790.6592,5391.6694 C 1790.6568,5097.5900 1731.8407,4777.3686 1614.2105,4431.0043 C 1568.4624,4287.2339 1545.5895,4156.5313 1545.5916,4038.8961 C 1545.5895,3784.0288 1666.4894,3656.5938 1908.2917,3656.5906 C 2084.7377,3656.5938 2192.5673,3757.8883 2231.7809,3960.4745 C 2238.3133,3986.6179 2241.5808,4012.7584 2241.5836,4038.8961 C 2241.5808,4097.7151 2189.2998,4297.0366 2084.7404,4636.8611 L 1986.7133,5077.9828 C 1980.1756,5149.8710 1976.9080,5218.4899 1976.9106,5283.8396 L 1976.9106,5538.7100 L 2045.5295,5499.4992 C 2248.1159,5381.8682 2496.4509,5159.6737 2790.5351,4832.9152 C 3006.1911,4591.1174 3176.1044,4470.2175 3300.2758,4470.2151 C 3463.6502,4470.2175 3574.7474,4542.1039 3633.5678,4685.8746 C 3646.6338,4725.0876 3653.1689,4770.8335 3653.1732,4823.1125 C 3653.1689,5025.7036 3571.4798,5153.1386 3408.1055,5205.4180 L 2682.7054,5381.8667 C 2467.0428,5447.2195 2257.9186,5545.2464 2055.3322,5675.9479 L 2133.7539,5724.9614 C 2362.4807,5868.7354 2702.3075,5986.3677 3153.2352,6077.8588 C 3421.1718,6130.1406 3581.2825,6211.8297 3633.5678,6322.9264 L 3662.9759,6499.3751 C 3662.9716,6695.4293 3571.4798,6809.7941 3388.5001,6842.4698 C 3362.3556,6849.0049 3336.2151,6852.2725 3310.0785,6852.2725 C 3166.3017,6852.2725 2989.8532,6731.3726 2780.7324,6489.5724 C 2532.3941,6202.0270 2339.6078,6012.5082 2202.3728,5921.0155 C 2150.0890,5888.3408 2097.8080,5862.2002 2045.5295,5842.5938 L 1976.9106,5813.1857 L 1976.9106,5881.8047 C 1976.9080,6293.5188 2045.5269,6669.2888 2182.7674,7009.1157 C 2228.5106,7120.2128 2251.3835,7208.4371 2251.3863,7273.7888 C 2251.3835,7450.2369 2176.2295,7574.4043 2025.9241,7646.2916 C 1980.1756,7672.4313 1927.8946,7685.5016 1869.0808,7685.5024 C 1712.2353,7685.5016 1607.6732,7610.3476 1555.3943,7460.0402 C 1535.7868,7407.7585 1525.9841,7355.4775 1525.9862,7303.1969 C 1525.9841,7244.3803 1581.5327,7045.0588 1692.6321,6705.2319 C 1790.6568,6385.0107 1823.3325,6110.5352 1790.6592,5881.8047 L 1780.8565,5813.1857 C 1454.0976,6028.8461 1241.7059,6192.2243 1143.6807,6303.3210 L 1035.8509,6420.9534 C 826.72513,6656.2186 686.21984,6786.9212 614.33459,6813.0616 C 568.58749,6832.6671 509.77132,6842.4698 437.88590,6842.4698 C 254.90124,6842.4698 147.07160,6754.2455 114.39663,6577.7967 C 107.86081,6564.7267 104.59325,6548.3889 104.59393,6528.7832 M 4319.7571,6528.7832 C 4319.7522,6326.1945 4427.5819,6192.2243 4643.2464,6126.8723 L 5407.8574,5930.8182 C 5603.9053,5865.4678 5780.3538,5777.2435 5937.2034,5666.1451 L 5829.3737,5597.5262 C 5652.9188,5486.4303 5342.5001,5381.8682 4898.1167,5283.8396 L 4555.0220,5185.8126 C 4398.1738,5107.3927 4319.7522,4986.4928 4319.7571,4823.1125 C 4319.7522,4692.4119 4375.3008,4594.3850 4486.4031,4529.0314 C 4532.1439,4502.8932 4584.4250,4489.8229 4643.2464,4489.8205 C 4787.0140,4489.8229 4934.0545,4574.7796 5084.3681,4744.6909 C 5332.6974,5032.2387 5564.6945,5244.6304 5780.3602,5381.8667 C 5852.2402,5427.6141 5927.3942,5473.3600 6005.8224,5519.1046 L 6005.8224,5391.6694 C 6005.8158,5097.5900 5946.9996,4777.3686 5829.3737,4431.0043 C 5783.6214,4287.2339 5760.7484,4156.5313 5760.7548,4038.8961 C 5760.7484,3784.0288 5881.6483,3656.5938 6123.4548,3656.5906 C 6299.8967,3656.5938 6407.7263,3757.8883 6446.9441,3960.4745 C 6453.4722,3986.6179 6456.7398,4012.7584 6456.7468,4038.8961 C 6456.7398,4097.7151 6404.4587,4297.0366 6299.9035,4636.8611 L 6201.8765,5077.9828 C 6195.3346,5149.8710 6192.0670,5218.4899 6192.0738,5283.8396 L 6192.0738,5538.7100 L 6260.6927,5499.4992 C 6463.2749,5381.8682 6711.6099,5159.6737 7005.6983,4832.9152 C 7221.3500,4591.1174 7391.2634,4470.2175 7515.4390,4470.2151 C 7678.8091,4470.2175 7789.9063,4542.1039 7848.7309,4685.8746 C 7861.7928,4725.0876 7868.3279,4770.8335 7868.3363,4823.1125 C 7868.3279,5025.7036 7786.6388,5153.1386 7623.2687,5205.4180 L 6897.8685,5381.8667 L 6495.9576,5548.5127 L 6270.4954,5675.9479 L 6348.9171,5724.9614 C 6577.6397,5868.7354 6917.4665,5986.3677 7368.3984,6077.8588 C 7636.3308,6130.1406 7796.4415,6211.8297 7848.7309,6322.9264 L 7878.1391,6499.3751 C 7878.1306,6695.4293 7786.6388,6809.7941 7603.6633,6842.4698 C 7577.5146,6849.0049 7551.3741,6852.2725 7525.2417,6852.2725 C 7381.4607,6852.2725 7205.0122,6731.3726 6995.8956,6489.5724 C 6747.5531,6202.0270 6554.7667,6012.5082 6417.5360,5921.0155 L 6260.6927,5842.5938 L 6192.0738,5813.1857 L 6192.0738,5881.8047 C 6192.0670,6293.5188 6260.6859,6669.2888 6397.9306,7009.1157 C 6443.6695,7120.2128 6466.5425,7208.4371 6466.5495,7273.7888 C 6466.5425,7450.2369 6391.3885,7574.4043 6241.0873,7646.2916 C 6195.3346,7672.4313 6143.0535,7685.5016 6084.2440,7685.5024 C 5927.3942,7685.5016 5822.8322,7610.3476 5770.5575,7460.0402 C 5750.9457,7407.7585 5741.1430,7355.4775 5741.1493,7303.1969 C 5741.1430,7244.3803 5796.6916,7045.0588 5907.7953,6705.2319 C 6005.8158,6385.0107 6038.4915,6110.5352 6005.8224,5881.8047 L 5996.0197,5813.1857 C 5669.2566,6028.8461 5456.8649,6192.2243 5358.8438,6303.3210 L 5251.0141,6420.9534 C 5041.8841,6656.2186 4901.3788,6786.9212 4829.4978,6813.0616 C 4783.7465,6832.6671 4724.9303,6842.4698 4653.0491,6842.4698 C 4470.0602,6842.4698 4362.2306,6754.2455 4329.5598,6577.7967 C 4323.0198,6564.7267 4319.7522,6548.3889 4319.7571,6528.7832"
       style="font-size:9802.7051;font-style:normal;font-variant:normal;font-weight:normal;font-stretch:normal;fill:#000000;fill-opacity:1.0000000;stroke:none;stroke-width:1.0000000px;stroke-linecap:butt;stroke-linejoin:miter;stroke-opacity:1.0000000;font-family:Courier;text-anchor:start;writing-mode:lr-tb"
       transform="scale(0.987595,1.012561)" />
  </g>
</svg>
